<svg xmlns="http://www.w3.org/2000/svg" viewBox="0 0 512 512" role="img" aria-label="Super Skill Router">
  <rect width="512" height="512" rx="104" fill="#1c1917"/>
  <path d="M256 256 136 136M256 256l120-120M256 256 136 376M256 256l120 120" fill="none" stroke="#2dd4bf" stroke-width="30" stroke-linecap="round"/>
  <rect x="96" y="96" width="80" height="80" rx="24" fill="#f5f5f4"/>
  <rect x="336" y="96" width="80" height="80" rx="24" fill="#f5f5f4"/>
  <rect x="96" y="336" width="80" height="80" rx="24" fill="#f5f5f4"/>
  <rect x="336" y="336" width="80" height="80" rx="24" fill="#f5f5f4"/>
  <path d="M256 150c42 30 76 36 76 36v72c0 57-31 94-76 112-45-18-76-55-76-112v-72s34-6 76-36Z" fill="#f5f5f4"/>
  <rect x="224" y="213" width="64" height="64" rx="18" fill="#0f766e"/>
  <path d="M241 295h30M256 277v40" fill="none" stroke="#0f766e" stroke-width="16" stroke-linecap="round"/>
</svg>
